<svg xmlns:inkscape="http://www.inkscape.org/namespaces/inkscape" xmlns:sodipodi="http://sodipodi.sourceforge.net/DTD/sodipodi-0.dtd" xmlns="http://www.w3.org/2000/svg" xmlns:svg="http://www.w3.org/2000/svg" xmlns:rdf="http://www.w3.org/1999/02/22-rdf-syntax-ns#" xmlns:cc="http://creativecommons.org/ns#" xmlns:dc="http://purl.org/dc/elements/1.1/" viewBox="0 0 10.583333 13.2291675" version="1.1" x="0px" y="0px"><g><path style="color:#000000;" d="m 4.3638175,0.09043317 c -1.2179564,0 -2.210718,0.99041603 -2.210718,2.20710003 0,0.785743 0.4141787,1.477395 1.0355976,1.869137 -1.4677389,0.489606 -2.52387621,1.871869 -2.52387886,3.503663 v 1.150315 A 0.26460995,0.26460995 0 0 0 0.9283697,9.0862662 H 4.0377398 A 0.26458349,0.26458349 0 0 0 4.3012912,8.8206482 0.26458349,0.26458349 0 0 0 4.0377398,8.5571002 H 1.1939849 v -0.886767 c 0,-1.757762 1.4085967,-3.16415 3.1698326,-3.16415 0.5753841,0 1.110877,0.150437 1.5740645,0.414446 A 0.26458349,0.26458349 0 0 0 6.2991017,4.8229612 0.26458349,0.26458349 0 0 0 6.199883,4.4612252 C 5.9914998,4.3424512 5.7703399,4.2436932 5.5389406,4.1666702 c 0.6214189,-0.391742 1.035595,-1.083394 1.035595,-1.869137 0,-1.216684 -0.992759,-2.20710003 -2.2107181,-2.20710003 z m 0,0.529167 c 0.9324367,0 1.6815515,0.74769403 1.6815515,1.67793303 0,0.930241 -0.7491148,1.679484 -1.6815515,1.679484 -0.9324339,0 -1.6815487,-0.749243 -1.6815514,-1.679484 0,-0.930239 0.7491175,-1.67793303 1.6815514,-1.67793303 z m 2.900598,4.56819503 c -1.4634316,0 -2.6566839,1.190749 -2.6566839,2.652554 0,1.461801 1.1932523,2.6525508 2.6566839,2.6525508 1.4634368,0 2.6541015,-1.1907498 2.6541015,-2.6525508 0,-1.461805 -1.1906647,-2.652551 -2.6541015,-2.652554 z m 0,0.529685 c 1.1779065,0 2.1249349,0.9475 2.1249349,2.122869 0,1.175369 -0.9470284,2.122865 -2.1249349,2.122865 -0.6257608,0 -1.1870108,-0.267559 -1.5756123,-0.694531 -0.01143,-0.01256 -0.022979,-0.02489 -0.034107,-0.03772 -0.2670757,-0.307949 -0.4462674,-0.694055 -0.5002265,-1.119831 -0.00225,-0.01774 -0.00439,-0.03535 -0.0062,-0.05323 -0.00724,-0.07151 -0.010853,-0.144097 -0.010853,-0.217556 0,-0.01837 5.56e-5,-0.03653 5.186e-4,-0.05478 0.00184,-0.073 0.00754,-0.145044 0.016536,-0.216006 0.00225,-0.01774 0.00455,-0.03563 0.00723,-0.05323 0.1555273,-1.020754 1.0352378,-1.798857 2.1027125,-1.798857 z m 0,0.929659 a 0.26458299,0.26458299 0 0 0 -0.2656152,0.263548 v 0.66611 H 6.3326906 a 0.26458299,0.26458299 0 0 0 -0.2656179,0.263552 0.26458299,0.26458299 0 0 0 0.2656179,0.265615 h 0.6661097 v 0.664043 a 0.26458299,0.26458299 0 0 0 0.2656152,0.265615 0.26458299,0.26458299 0 0 0 0.2635514,-0.265615 V 8.1059642 H 8.1940766 A 0.26458299,0.26458299 0 0 0 8.4596919,7.8403492 0.26458299,0.26458299 0 0 0 8.1940766,7.5767972 H 7.5279669 v -0.66611 A 0.26458299,0.26458299 0 0 0 7.2644155,6.6471392 Z" fill="#000000" stroke-width="1" stroke-linecap="round"/></g></svg>