<svg xmlns="http://www.w3.org/2000/svg" version="1.1" viewBox="-5.0 -10.0 110.0 135.0">
 <path d="m98.383 59.852-17.93 24.227c-0.50781 0.80859-1.4062 1.3516-2.4375 1.3516-1.5859 0-2.8672-1.2852-2.8672-2.8672v-9.3398h-71.238c-1.5859 0-2.8672-1.2852-2.8672-2.8672v-12.207c0-1.5859 1.2852-2.8672 2.8672-2.8672h92.172v0.007812c0.59375 0 1.1914 0.18359 1.7031 0.5625 1.2695 0.9375 1.5312 2.7344 0.59375 4zm-96.766-19.703 17.93-24.227c0.50781-0.80859 1.4062-1.3516 2.4375-1.3516 1.5859 0 2.8672 1.2852 2.8672 2.8672v9.3398h71.238c1.5859 0 2.8672 1.2852 2.8672 2.8672v12.207c0 1.5859-1.2852 2.8672-2.8672 2.8672h-92.172v-0.007812c-0.59375 0-1.1914-0.18359-1.7031-0.5625-1.2695-0.9375-1.5312-2.7344-0.59375-4z"/>
</svg>