<svg xmlns="http://www.w3.org/2000/svg" xmlns:xlink="http://www.w3.org/1999/xlink" version="1.1" x="0px" y="0px" viewBox="0 0 64 80" enable-background="new 0 0 64 64" xml:space="preserve"><path d="M59.3496094,23.690918h-3.7724609c-0.5522461,0-1,0.4477539-1,1v0.8862305h-30.192688  c0.3824463-0.6931763,0.5994263-1.4796143,0.5994263-2.3007813c0-2.6313477-2.1411133-4.7724609-4.7724609-4.7724609  c-0.0062866,0-0.0130615,0.0013428-0.0194092,0.0013428c-0.4099731-0.3029785-0.8580933-0.5380859-1.338501-0.6948853v-4.3796997  h2.7724609c0.5136719,0,0.9438477-0.3891602,0.9951172-0.9003906L23.4743652,4h0.9807129c0.5522461,0,1-0.4477539,1-1  s-0.4477539-1-1-1h-1.8857422h-9.4311523H7.4794922c-0.5522461,0-1,0.4477539-1,1v12.6748047H4.6503906  c-0.5522461,0-1,0.4477539-1,1v28.2924805c0,0.5522461,0.4477539,1,1,1H9.309082v9.7175293  c-0.4974365,0.6134033-0.9433594,1.539978-0.9433594,2.486084C8.3657227,60.2822266,10.0834961,62,12.1953125,62  c2.1113281,0,3.8291016-1.7177734,3.8291016-3.8291016c0-0.9342041-0.3519287-1.810791-0.9428711-2.4867554v-5.4727173h35.7231445  v5.4735718c-0.4971313,0.6133423-0.9428711,1.5400391-0.9428711,2.4859009C49.8618164,60.2822266,51.5795898,62,53.690918,62  c2.1118164,0,3.8295898-1.7177734,3.8295898-3.8291016c0-0.9347534-0.3520508-1.8114014-0.9433594-2.4871216v-9.7164917h2.7724609  c0.5522461,0,1-0.4477539,1-1V24.690918C60.3496094,24.1386719,59.9018555,23.690918,59.3496094,23.690918z M26.3984375,27.5771484  h28.1787109v5.0732422H26.3984375V27.5771484z M20.899353,25.5727539c0.1192017-0.1292725,0.2166748-0.2766113,0.3208008-0.4185791  c0.0669556-0.0912476,0.1452637-0.1734619,0.2056274-0.2695313c0.1005859-0.1600952,0.1762695-0.3359375,0.2575073-0.5083008  c0.043396-0.0921021,0.0996094-0.1765137,0.137146-0.2717896c0.0756836-0.1919556,0.123291-0.3969116,0.1740112-0.6003418  c0.0216064-0.0865479,0.0570068-0.1672363,0.0738525-0.2556152c0.0563965-0.2960815,0.0859985-0.6019287,0.0859985-0.9151001  c0-0.3104858-0.0386963-0.6151123-0.097168-0.9144287c-0.0095825-0.0491943-0.0164185-0.0983887-0.0275269-0.1472168  c-0.0077515-0.0341187-0.0108032-0.069519-0.0193481-0.1033936c0.5957031,0.5087891,0.9736328,1.2651367,0.9736328,2.1079102  c0,0.9306641-0.4658203,1.7919922-1.2294922,2.3007813h-0.8583984  C20.8972778,25.5758057,20.8980713,25.5740967,20.899353,25.5727539z M22.0317383,27.5771484h2.3666992v5.0732422H11.309082  v-5.0732422h7.0820313H22.0317383z M19.230957,20.2744141c0.5869141,0.5151367,0.9233398,1.265625,0.9233398,2.059082  c0,1.4516602-1.0893555,2.6367188-2.6240234,2.7685547c-0.0488281,0.0063477-0.1005859,0.003418-0.1479492,0.003418  c-1.5288086,0-2.7724609-1.2436523-2.7724609-2.7719727c0-1.5288086,1.2436523-2.7724609,2.7724609-2.7724609  C18.0639648,19.5610352,18.7167969,19.8110352,19.230957,20.2744141z M21.4643555,4l-0.7431641,7.4306641h-5.7348633L14.2431641,4  H21.4643555z M8.4794922,4h3.7536621l0.8532715,8.5302734c0.0512695,0.5112305,0.4814453,0.9003906,0.9951172,0.9003906h2.7719727  v4.1838379c-2.380127,0.2671509-4.2436523,2.2687378-4.2436523,4.7189941c0,1.2555542,0.4972534,2.3907471,1.2929077,3.2436523  h-2.593689v-8.9023438c0-0.5522461-0.4477539-1-1-1H8.4794922V4z M5.6503906,17.6748047H9.309082v4.1298828H5.6503906V17.6748047z   M12.1953125,60c-1.0087891,0-1.8295898-0.8203125-1.8295898-1.8291016c0-0.5099487,0.3637695-1.1278076,0.6175537-1.3639526  c0.1442261-0.1304321,0.3146973-0.220459,0.4908447-0.2941895c0.0551147-0.0237427,0.1135864-0.0405884,0.1721802-0.060791  c0.5952148-0.1801758,1.2778931-0.0718994,1.7521362,0.3493042c0.0082397,0.0072021,0.0177002,0.012146,0.0258789,0.0195313  c0.3813477,0.3330078,0.6000977,0.824707,0.6000977,1.3500977C14.0244141,59.1796875,13.2041016,60,12.1953125,60z   M11.309082,54.4453125v-8.4780273h1.7724609v8.4780273c-0.0255737-0.0061035-0.0530396-0.0036621-0.0787354-0.0092163  c-0.263916-0.0571899-0.5328369-0.0947876-0.8074951-0.0947876c-0.2580566,0-0.5158691,0.0333252-0.7658691,0.0899048  C11.3900146,54.4393311,11.3481445,54.4359741,11.309082,54.4453125z M50.8046875,48.2114258H15.081543v-2.2441406h35.7231445  V48.2114258z M14.081543,43.9672852H10.309082H5.6503906V23.8046875H9.309082v2.7724609v7.0732422v0.4716797  c0,0.5522461,0.4477539,1,1,1h44.2680664v8.8452148h-2.7724609H14.081543z M54.5771484,45.9672852v8.4780273  c-0.0255737-0.0061035-0.0530396-0.0036621-0.0787354-0.0092163c-0.263916-0.0571899-0.5328369-0.0947876-0.8074951-0.0947876  c-0.2580566,0-0.5158691,0.0333252-0.7658691,0.0899048c-0.0394287,0.0081177-0.0812988,0.0047607-0.1203613,0.0140991v-8.4780273  H54.5771484z M53.690918,60c-1.0087891,0-1.8291016-0.8203125-1.8291016-1.8291016  c0-0.5103149,0.3643188-1.1286621,0.6175537-1.364563c0.145874-0.1312256,0.317688-0.2224731,0.4956665-0.2962036  c0.0524902-0.0224609,0.1085815-0.0380249,0.1641846-0.057312c0.5953369-0.1810913,1.2775269-0.0730591,1.7518921,0.3467407  c0.0092163,0.0079956,0.0197144,0.0134888,0.0288086,0.0217285c0.3818359,0.3325195,0.6005859,0.8242188,0.6005859,1.3496094  C55.5205078,59.1796875,54.699707,60,53.690918,60z M58.3496094,43.9672852h-1.7724609v-9.8452148v-0.4716797v-7.0732422V25.690918  h1.7724609V43.9672852z"/></svg>